<svg xmlns="http://www.w3.org/2000/svg" width="44" height="46" viewBox="0 0 44 46">
    <g fill="#262C37" fill-rule="evenodd" opacity=".06">
        <path d="M42.713 21.124l-8.66-5-2 3.464 6.928 4-9 15.589-3.464-2-2 3.464-19.053-11 11-19.053 5.196 3 2-3.464-6.928-4A2 2 0 0 0 14 6.856L1 29.373a2 2 0 0 0 .732 2.732l22.517 13a1.995 1.995 0 0 0 1.517.2l5.464-1.464c.513-.136.95-.473 1.215-.932l11-19.053a2 2 0 0 0-.732-2.732"/>
        <path d="M15.928 19.517l15.589 9 2-3.464-15.589-9zM11.928 26.445l15.589 9 2-3.464-15.589-9zM28.309 10.073l-3.185 5.516a2 2 0 1 0 3.464 2l3.185-5.516c2.427.447 4.977-.617 6.28-2.878a5.997 5.997 0 0 0-2.197-8.194 5.995 5.995 0 0 0-8.193 2.195c-1.307 2.26-.954 5 .646 6.877"/>
    </g>
</svg>
