<svg xmlns="http://www.w3.org/2000/svg" width="49" height="38" viewBox="0 0 49 38">
    <g fill="#262C37" fill-rule="evenodd" opacity=".06">
        <path d="M28.393 21.175l-6.416-14.97 16.039 5.348 5.347 16.039-14.97-6.417zm1.924 12.219l-2.068-.69a18.076 18.076 0 0 1-11.384-11.385l-.69-2.067 4.93-4.93 3.925 9.164c.1.24.248.448.426.627.178.178.387.325.626.425l9.165 3.926-4.93 4.93zm18.249-2.843L41.495 9.338a1.995 1.995 0 0 0-1.265-1.264L19.017 1.003a1.989 1.989 0 0 0-1.285.024 2.474 2.474 0 0 0-.761.458L8.816 9.64c-.779.78-.78 2.048 0 2.829.781.78 2.05.78 2.829 0l6.064-6.064 1.698 3.958-6.935 6.935a2 2 0 0 0-.482 2.047c1.215 3.644 2.216 7.644 6.403 11.831 4.188 4.188 8.187 5.189 11.832 6.404a2 2 0 0 0 2.046-.483l6.935-6.935 6.675 2.863a2.001 2.001 0 0 0 2.684-2.472zM7.071 14.213a2 2 0 0 0-2.828 0l-2.829 2.829a2 2 0 1 0 2.829 2.828l2.828-2.828a2 2 0 0 0 0-2.829"/>
    </g>
</svg>
