<svg xmlns="http://www.w3.org/2000/svg" width="65" height="39" viewBox="0 0 65 39">
    <g fill="#262C37" fill-rule="evenodd" opacity=".06">
        <path d="M33.234 25.72a2 2 0 0 1 0-2.828l2.828-2.83-1.414-1.414 2.829-2.828 2.828 2.828a2 2 0 0 1 0 2.829l-1.414 1.414 5.94.848c.428.061.825.26 1.13.566l4.244 4.243 9.9-9.9L45.961 4.506 41.719 8.75 38.891 5.92l4.243-4.242a4.003 4.003 0 0 1 5.656 0L62.933 15.82a4.003 4.003 0 0 1 0 5.657l-9.9 9.9a4.004 4.004 0 0 1-5.657 0l-3.772-3.773-9.239-1.319a2.007 2.007 0 0 1-1.131-.566"/>
        <path d="M31.82 7.335a4.003 4.003 0 0 0-5.657 0 4.004 4.004 0 0 0 0 5.656 4.004 4.004 0 0 0 5.657 0 4.003 4.003 0 0 0 0-5.656m-8.485 8.485c-3.12-3.12-3.12-8.194 0-11.314 3.12-3.12 8.193-3.12 11.313 0 3.12 3.12 3.12 8.194 0 11.314-3.12 3.12-8.194 3.12-11.313 0M6.588 16.044l16.523 16.522c1.71-3.404.234-8.25-4.02-12.504-4.253-4.254-9.1-5.729-12.503-4.018zm16.746 22.403L.707 15.819l1.414-1.414c4.996-4.996 13.138-3.832 19.799 2.829 6.662 6.662 7.825 14.802 2.828 19.799l-1.414 1.414z"/>
    </g>
</svg>
