<svg xmlns="http://www.w3.org/2000/svg" width="48" height="48" viewBox="0 0 48 48">
    <g fill="#262C37" fill-rule="evenodd" opacity=".06">
        <path d="M14.728 28.87V10.728l5.071-5.071 13.557 13.557v18.141l-5.072 5.072L14.728 28.87zm-4-14.142V24.87l-5.071-5.072 5.071-5.071zm26.627 18.628V23.213l5.072 5.071-5.072 5.072zm9.314-6.486L21.213 1.414a2 2 0 0 0-2.828 0l-16.97 16.97a2 2 0 0 0 0 2.83L26.87 46.668a2 2 0 0 0 2.829 0l16.97-16.97a2 2 0 0 0 0-2.829z"/>
        <path d="M21.213 26.87a4.004 4.004 0 0 1 0-5.657 4.005 4.005 0 0 1 5.657 0 4.005 4.005 0 0 1 0 5.657 4.004 4.004 0 0 1-5.657 0m8.485-8.485c-3.12-3.12-8.195-3.119-11.313 0-3.119 3.118-3.12 8.194 0 11.313 3.12 3.12 8.195 3.119 11.313 0 3.119-3.118 3.12-8.193 0-11.313"/>
    </g>
</svg>
