<svg width="160" height="160" viewBox="0 0 160 160" fill="none" xmlns="http://www.w3.org/2000/svg">
<path d="M80 50.45C76.5733 50.4539 73.2246 51.4737 70.3774 53.3803C67.5301 55.2869 65.312 57.9949 64.0034 61.1619C62.6948 64.3289 62.3544 67.8127 63.0254 71.1731C63.6963 74.5335 65.3484 77.6195 67.7729 80.0412C70.1973 82.4628 73.2852 84.1113 76.6464 84.7784C80.0075 85.4455 83.491 85.1011 86.6565 83.7889C89.8219 82.4766 92.5273 80.2554 94.4307 77.4059C96.3341 74.5564 97.3499 71.2066 97.3499 67.7799C97.3446 63.1819 95.5144 58.774 92.2612 55.5246C89.008 52.2751 84.598 50.4499 80 50.45V50.45ZM80 79.11C77.7599 79.106 75.5714 78.4381 73.7108 77.1908C71.8502 75.9434 70.4011 74.1725 69.5467 72.1019C68.6922 70.0313 68.4707 67.7538 68.9101 65.5573C69.3495 63.3609 70.4302 61.3439 72.0155 59.7614C73.6008 58.1789 75.6197 57.1018 77.8169 56.6662C80.0142 56.2307 82.2912 56.4562 84.3604 57.3143C86.4295 58.1724 88.1978 59.6246 89.4419 61.4874C90.686 63.3502 91.3499 65.5399 91.3499 67.7799C91.3486 69.2691 91.054 70.7435 90.4829 72.1188C89.9118 73.4941 89.0754 74.7435 88.0215 75.7956C86.9675 76.8477 85.7167 77.6819 84.3403 78.2506C82.964 78.8193 81.4891 79.1113 80 79.11V79.11Z" fill="#00B27B"/>
<path d="M83.0001 128.17V99.33C94.9105 98.5682 106.085 93.3039 114.256 84.6051C122.428 75.9064 126.984 64.4248 127 52.49C127 51.6943 126.684 50.9313 126.121 50.3687C125.559 49.8061 124.796 49.49 124 49.49C123.204 49.49 122.441 49.8061 121.879 50.3687C121.316 50.9313 121 51.6943 121 52.49C121 63.3493 116.686 73.7638 109.008 81.4425C101.329 89.1212 90.9144 93.435 80.0551 93.435C69.1958 93.435 58.7813 89.1212 51.1026 81.4425C43.4239 73.7638 39.1101 63.3493 39.1101 52.49C39.1101 51.6943 38.794 50.9313 38.2314 50.3687C37.6688 49.8061 36.9058 49.49 36.1101 49.49C35.3145 49.49 34.5514 49.8061 33.9888 50.3687C33.4262 50.9313 33.1101 51.6943 33.1101 52.49C33.1246 64.407 37.6653 75.8735 45.8136 84.5695C53.9619 93.2654 65.1092 98.5415 77.0001 99.33V128.17C53.6101 131.79 43.2801 139.94 41.4401 146.5C40.975 148.047 40.993 149.699 41.4915 151.236C41.99 152.773 42.9454 154.121 44.2301 155.1C46.6601 157.1 50.7701 158.41 56.5501 158.41C62.5501 158.41 70.3901 156.97 79.9901 153.33C89.5901 156.97 97.4201 158.41 103.43 158.41C109.21 158.41 113.32 157.08 115.75 155.1C117.035 154.121 117.99 152.773 118.489 151.236C118.987 149.699 119.005 148.047 118.54 146.5C116.74 139.94 106.41 131.79 83.0001 128.17ZM112 150.44C109.16 152.75 101.11 153.65 88.3501 149.81C90.2968 148.91 92.2968 147.91 94.3501 146.81C95.0569 146.444 95.5894 145.812 95.8304 145.054C96.0713 144.295 96.0011 143.472 95.6351 142.765C95.2691 142.058 94.6373 141.526 93.8787 141.285C93.1202 141.044 92.2969 141.114 91.5901 141.48C87.4601 143.62 83.5901 145.38 80.0101 146.82C76.4201 145.38 72.5601 143.62 68.4301 141.48C67.7233 141.114 66.9001 141.044 66.1415 141.285C65.3829 141.526 64.7511 142.058 64.3851 142.765C64.0191 143.472 63.9489 144.295 64.1899 145.054C64.4308 145.812 64.9633 146.444 65.6701 146.81C67.7368 147.877 69.7368 148.877 71.6701 149.81C58.9001 153.65 50.8601 152.75 48.0101 150.44C47.6358 150.197 47.3538 149.835 47.2088 149.413C47.0638 148.991 47.0643 148.532 47.2101 148.11C48.3901 144 58.0601 136.83 80.0001 133.8C102 136.8 111.63 144.02 112.77 148.12C112.919 148.539 112.924 148.995 112.784 149.417C112.645 149.839 112.369 150.202 112 150.45V150.44Z" fill="#00B27B"/>
<path d="M35.87 32.5L46.08 37.32L47.21 34.94L34.75 29.05L33.04 33.9001L34.87 34.7701L35.87 32.5Z" fill="#00B27B"/>
<path d="M41.4699 27.3999L44.3899 29.7099C45.3991 30.6099 46.698 31.1174 48.0499 31.1399C48.6356 31.1302 49.2112 30.9853 49.7316 30.7164C50.252 30.4476 50.7032 30.062 51.0499 29.5899C51.4224 29.151 51.6892 28.6324 51.8296 28.0742C51.9701 27.5159 51.9804 26.9328 51.8599 26.3699C51.5231 25.0602 50.7285 23.9144 49.6199 23.1399L46.6999 20.8299C45.679 19.9233 44.3652 19.4155 42.9999 19.3999C42.4226 19.4222 41.8569 19.5694 41.3419 19.8312C40.8268 20.093 40.3746 20.4633 40.0164 20.9166C39.6581 21.3699 39.4023 21.8955 39.2665 22.4571C39.1308 23.0187 39.1183 23.603 39.2299 24.1699C39.5692 25.4785 40.3633 26.6235 41.4699 27.3999V27.3999ZM41.6599 22.2099C41.8113 22.0224 42.0133 21.8822 42.242 21.8059C42.4706 21.7297 42.7163 21.7207 42.9499 21.7799C43.657 21.9488 44.3104 22.2927 44.8499 22.7799L48.1199 25.3699C48.7122 25.7913 49.1927 26.3508 49.5199 26.9999C49.631 27.2111 49.6788 27.4499 49.6575 27.6876C49.6362 27.9253 49.5468 28.1518 49.3999 28.3399C49.2494 28.5318 49.0467 28.6764 48.8161 28.7562C48.5856 28.836 48.337 28.8477 48.0999 28.7899C47.3905 28.6193 46.7343 28.2758 46.1899 27.7899L42.9199 25.1999C42.333 24.7838 41.856 24.2313 41.5299 23.5899C41.4143 23.3724 41.365 23.1257 41.3881 22.8804C41.4112 22.6351 41.5057 22.402 41.6599 22.2099V22.2099Z" fill="#00B27B"/>
<path d="M50.4899 22.22C51.2716 23.3262 52.4252 24.1143 53.7399 24.44C54.3113 24.5598 54.9027 24.5464 55.468 24.4007C56.0334 24.255 56.5576 23.981 56.9999 23.6C57.4669 23.2512 57.8465 22.7986 58.1085 22.278C58.3706 21.7573 58.508 21.1829 58.5099 20.6C58.4503 19.2587 57.915 17.9825 56.9999 17L54.6799 14.09C53.8966 12.992 52.7481 12.2086 51.4399 11.88C50.8729 11.7714 50.289 11.7868 49.7285 11.9253C49.168 12.0637 48.6441 12.3218 48.1928 12.6819C47.7415 13.042 47.3735 13.4955 47.114 14.0113C46.8546 14.5271 46.7099 15.093 46.6899 15.67C46.7239 17.0204 47.238 18.3145 48.1399 19.32L50.4899 22.22ZM49.4899 14.3C49.6801 14.1534 49.9083 14.0643 50.1474 14.043C50.3866 14.0218 50.6269 14.0693 50.8399 14.18C51.4884 14.4946 52.0485 14.9653 52.4699 15.55L55.0699 18.81C55.5527 19.3527 55.8959 20.0048 56.0699 20.71C56.1374 20.9388 56.1374 21.1822 56.07 21.411C56.0026 21.6398 55.8706 21.8443 55.6899 22C55.4992 22.1526 55.2686 22.247 55.0256 22.2718C54.7826 22.2966 54.5376 22.2509 54.3199 22.14C53.6672 21.8187 53.1039 21.3412 52.6799 20.75L50.0799 17.49C49.5976 16.9509 49.2543 16.3021 49.0799 15.6C49.0185 15.364 49.0274 15.1152 49.1056 14.8842C49.1838 14.6532 49.3278 14.4501 49.5199 14.3H49.4899Z" fill="#00B27B"/>
<path d="M58.4301 9.09997L63.3101 19.29L65.6901 18.15L59.7401 5.71997L55.3501 8.40997L56.2201 10.23L58.4301 9.09997Z" fill="#00B27B"/>
<path d="M66.8299 12.3C67.0427 13.6344 67.7276 14.848 68.7599 15.72C69.2136 16.0704 69.7408 16.3136 70.3019 16.4313C70.863 16.5491 71.4435 16.5384 71.9999 16.4C72.567 16.2931 73.1019 16.0571 73.5632 15.7103C74.0245 15.3635 74.3997 14.9151 74.6599 14.4C75.2335 13.1818 75.354 11.799 74.9999 10.5L74.1999 6.86997C73.9845 5.53646 73.3 4.32368 72.2699 3.44997C71.8085 3.10157 71.2771 2.85732 70.7122 2.73406C70.1474 2.6108 69.5625 2.61144 68.998 2.73595C68.4334 2.86046 67.9025 3.10588 67.4419 3.4553C66.9813 3.80471 66.6019 4.24982 66.3299 4.75997C65.7589 5.98271 65.6419 7.36881 65.9999 8.66997L66.8299 12.3ZM68.5099 5.73997C68.5564 5.50311 68.671 5.28497 68.8396 5.1123C69.0083 4.93963 69.2237 4.81994 69.4594 4.76792C69.6951 4.7159 69.9409 4.73379 70.1665 4.81942C70.3922 4.90505 70.588 5.05468 70.7299 5.24997C71.1782 5.83376 71.4707 6.522 71.5799 7.24997L72.4799 11.32C72.675 12.021 72.6956 12.7591 72.5399 13.47C72.499 13.7107 72.3881 13.934 72.2208 14.1119C72.0536 14.2898 71.8376 14.4143 71.5999 14.47C71.3615 14.5224 71.113 14.505 70.8842 14.4199C70.6554 14.3347 70.456 14.1855 70.3099 13.99C69.8609 13.4054 69.5653 12.7179 69.4499 11.99L68.5499 7.91997C68.3551 7.20798 68.3414 6.45862 68.5099 5.73997V5.73997Z" fill="#00B27B"/>
<path d="M79.6201 15.3301L82.2601 15.3701L82.4801 1.6001L77.3501 2.0401L77.3201 4.0601L79.8001 4.0401L79.6201 15.3301Z" fill="#00B27B"/>
<path d="M88.7699 16.5801C89.3171 16.7338 89.8921 16.7615 90.4515 16.661C91.011 16.5606 91.5404 16.3346 91.9999 16.0001C93.0486 15.1482 93.758 13.9493 93.9999 12.6201L94.9099 9.00005C95.3194 7.68195 95.2341 6.25973 94.6699 5.00005C94.4082 4.48485 94.038 4.03246 93.5847 3.67402C93.1315 3.31559 92.606 3.05961 92.0443 2.92371C91.4827 2.78781 90.8982 2.77522 90.3312 2.8868C89.7643 2.99838 89.2282 3.23147 88.7599 3.57005C87.7126 4.42307 87.0035 5.62142 86.7599 6.95005L85.8799 10.5701C85.4845 11.8621 85.5662 13.2531 86.1099 14.4901C86.3618 15.0202 86.733 15.4848 87.1945 15.8474C87.656 16.21 88.1952 16.4608 88.7699 16.5801V16.5801ZM88.3999 11.4401L89.3999 7.39005C89.534 6.68052 89.8396 6.01452 90.2899 5.45005C90.4375 5.26058 90.6369 5.11805 90.864 5.03976C91.091 4.96148 91.3359 4.95081 91.5689 5.00906C91.8019 5.06731 92.013 5.19197 92.1765 5.36789C92.34 5.54381 92.4489 5.76342 92.4899 6.00005C92.637 6.70653 92.6061 7.43851 92.3999 8.13005L91.3999 12.1801C91.2736 12.9102 90.9678 13.5975 90.5099 14.1801C90.3653 14.3713 90.1684 14.5165 89.943 14.5982C89.7176 14.6798 89.4734 14.6944 89.2399 14.6401C89.0021 14.5826 88.7859 14.4577 88.6173 14.2803C88.4488 14.1029 88.3351 13.8805 88.2899 13.6401C88.1431 12.9084 88.1844 12.1514 88.4099 11.4401H88.3999Z" fill="#00B27B"/>
<path d="M98.4401 20.17L104.65 7.87002L99.8501 6.02002L98.9301 7.83002L101.18 8.89002L96.0801 18.97L98.4401 20.17Z" fill="#00B27B"/>
<path d="M102.23 21.12C102.23 21.699 102.363 22.2703 102.618 22.7902C102.872 23.3102 103.243 23.765 103.7 24.12C104.128 24.502 104.639 24.7809 105.192 24.9351C105.745 25.0894 106.326 25.115 106.89 25.01C108.208 24.7093 109.375 23.9467 110.18 22.86L112.57 20C113.492 19.0129 114.031 17.7292 114.09 16.38C114.094 15.8023 113.966 15.2313 113.714 14.7111C113.463 14.191 113.095 13.7355 112.64 13.38C112.208 12.9936 111.693 12.7121 111.134 12.5578C110.576 12.4034 109.989 12.3802 109.42 12.49C108.103 12.7932 106.936 13.5553 106.13 14.64L103.74 17.5C102.821 18.4876 102.285 19.7717 102.23 21.12V21.12ZM104.61 21.24C104.786 20.5415 105.129 19.8963 105.61 19.36L108.28 16.16C108.732 15.5734 109.323 15.1092 110 14.81C110.216 14.7001 110.46 14.6561 110.701 14.6833C110.942 14.7106 111.17 14.8079 111.356 14.9633C111.542 15.1187 111.679 15.3253 111.749 15.5576C111.819 15.7899 111.819 16.0376 111.75 16.27C111.576 16.9664 111.233 17.609 110.75 18.14L108 21.34C107.562 21.9227 106.989 22.3896 106.33 22.7C106.116 22.8069 105.876 22.8497 105.638 22.8231C105.4 22.7965 105.175 22.7016 104.99 22.55C104.809 22.3904 104.676 22.1824 104.609 21.9504C104.542 21.7183 104.542 21.4719 104.61 21.24V21.24Z" fill="#00B27B"/>
<path d="M109.2 29.49L110.8 31.6L121.78 23.28L118.28 19.51L116.66 20.73L118.21 22.67L109.2 29.49Z" fill="#00B27B"/>
<path d="M116.75 31.5201C115.47 31.9921 114.404 32.9122 113.75 34.1101C113.496 34.63 113.363 35.2012 113.363 35.7801C113.363 36.3589 113.496 36.9301 113.75 37.4501C113.968 37.9819 114.304 38.4568 114.734 38.8382C115.164 39.2195 115.676 39.4973 116.23 39.6501C117.547 39.9588 118.93 39.7849 120.13 39.1601L123.53 37.6401C124.807 37.1682 125.872 36.2524 126.53 35.0601C126.775 34.5354 126.903 33.9637 126.906 33.3845C126.908 32.8054 126.785 32.2327 126.544 31.7059C126.304 31.1791 125.952 30.7108 125.512 30.3334C125.073 29.956 124.557 29.6785 124 29.5201C122.684 29.2119 121.302 29.382 120.1 30.0001L116.75 31.5201ZM123.51 31.8401C123.752 31.8366 123.99 31.9042 124.195 32.0346C124.399 32.165 124.561 32.3525 124.66 32.5738C124.759 32.7951 124.791 33.0406 124.752 33.2799C124.713 33.5192 124.604 33.7418 124.44 33.9201C123.971 34.4683 123.373 34.891 122.7 35.1501L118.89 36.8501C118.241 37.1827 117.519 37.351 116.79 37.3401C116.552 37.3409 116.32 37.2735 116.119 37.1458C115.919 37.0182 115.76 36.8357 115.66 36.6201C115.561 36.3972 115.528 36.1504 115.565 35.9092C115.602 35.668 115.708 35.4426 115.87 35.2601C116.343 34.7004 116.948 34.2673 117.63 34.0001L121.44 32.3001C122.082 31.9814 122.793 31.8236 123.51 31.8401V31.8401Z" fill="#00B27B"/>
</svg>
