<svg xmlns="http://www.w3.org/2000/svg" width="900" height="82" viewBox="0 0 900 82">
    <g fill="none" fill-rule="evenodd">
        <path fill="#FFF" fill-rule="nonzero" d="M0 1h900v80H0z"/>
        <g transform="translate(410 1)">
            <path stroke="#262C37" stroke-dasharray="4,4" stroke-linecap="round" stroke-linejoin="round" stroke-opacity=".25" stroke-width="2" d="M40 0a8.302 8.302 0 0 1 8.302 8.302v63.396a8.302 8.302 0 1 1-16.604 0V8.302A8.302 8.302 0 0 1 40 0z"/>
            <path stroke="#262C37" stroke-dasharray="4,4" stroke-linecap="round" stroke-linejoin="round" stroke-opacity=".25" stroke-width="2" d="M80 40a8.302 8.302 0 0 1-8.302 8.302H8.302a8.302 8.302 0 1 1 0-16.604h63.396A8.302 8.302 0 0 1 80 40z"/>
            <circle cx="40" cy="40" r="3.019" fill="#262C37" fill-opacity=".25"/>
            <path stroke="#262C37" stroke-dasharray="4,4" stroke-linecap="round" stroke-linejoin="round" stroke-opacity=".15" stroke-width="2" d="M68.284 11.716a8.302 8.302 0 0 1 0 11.74L23.456 68.284a8.302 8.302 0 1 1-11.74-11.74l44.828-44.828a8.302 8.302 0 0 1 11.74 0z"/>
            <path stroke="#262C37" stroke-dasharray="4,4" stroke-linecap="round" stroke-linejoin="round" stroke-opacity=".15" stroke-width="2" d="M68.284 68.284a8.302 8.302 0 0 1-11.74 0L11.716 23.456a8.302 8.302 0 1 1 11.74-11.74l44.828 44.828a8.302 8.302 0 0 1 0 11.74z"/>
        </g>
        <path stroke="#262C37" stroke-dasharray="4,4" stroke-linecap="round" stroke-linejoin="round" stroke-opacity=".25" stroke-width="2" d="M128 1v40h258M514 41h258v40"/>
    </g>
</svg>
