<svg xmlns="http://www.w3.org/2000/svg" width="900" height="82" viewBox="0 0 900 82">
    <g fill="none" fill-rule="evenodd">
        <path stroke="#262C37" stroke-dasharray="4,4" stroke-linecap="round" stroke-linejoin="round" stroke-opacity=".25" stroke-width="2"  d="M 394,41 C 394,21.294 408.962,7.576 427.272,7.018 446.117,6.443 461.22,19.983 461.22,41 c 0,8.345 4.42,12.347 11.049,12.143 C 479.059,52.933 484,48.359 484,41 V 11.629 L 494.973,19.574 506,11.63 V 41 C 506,60.68 491.157,74.422 472.95,74.982 454.206,75.559 439.22,61.992 439.22,41 439.22,32.68 434.725,28.65 427.947,28.857 421.016,29.07 416,33.667 416,41 V 70.227 L 405.013,62.281 394,70.227 Z"/>
    </g>
</svg>
