<svg xmlns="http://www.w3.org/2000/svg" width="900" height="82" viewBox="0 0 900 82">
    <g fill="none" fill-rule="evenodd">
        <path fill="#FFF" fill-rule="nonzero" d="M0 1h900v80H0z"/>
        <path stroke="#262C37" stroke-dasharray="4,4" stroke-linecap="round" stroke-linejoin="round" stroke-opacity=".25" stroke-width="2" d="M128 1v40h269M503 41h269v40"/>
        <g stroke="#262C37" stroke-linecap="round" stroke-linejoin="round" stroke-opacity=".25" stroke-width="2">
            <path stroke-dasharray="4,4" d="M444.2 77h-4.272V58.79c0-1.132-.683-2.155-1.742-2.617-10.17-4.435-17.246-14.418-17.186-26.01.08-15.347 12.866-27.947 28.586-28.16C465.792 1.783 479 14.54 479 30.31c0 11.527-7.056 21.443-17.182 25.86-1.06.463-1.745 1.486-1.745 2.62V77H455.8l-2.614 3.634c-.22.229-.59.366-.987.366H447.8c-.397 0-.767-.137-.988-.366L444.2 77z"/>
            <path d="M444 33l3.223-3.711L450.447 33l3.473-4 3.08 3.546"/>
        </g>
    </g>
</svg>
