<?xml version="1.0" encoding="utf-8"?>
<!-- Generator: Adobe Illustrator 22.0.1, SVG Export Plug-In . SVG Version: 6.00 Build 0)  -->
<svg version="1.1" id="Layer_1" xmlns="http://www.w3.org/2000/svg" xmlns:xlink="http://www.w3.org/1999/xlink" x="0px" y="0px"
	 viewBox="0 0 24 24" style="enable-background:new 0 0 24 24;" xml:space="preserve">
<style type="text/css">
	.st0{fill:#262C37;}
</style>
<title>Combined Shape</title>
<desc>Created with Sketch.</desc>
<g id="Page-1">
	<g id="_x33_20-new-2" transform="translate(-96.000000, -2583.000000)">
		<g id="_x35_" transform="translate(0.000000, 2143.000000)">
			<g id="Group-12" transform="translate(16.000000, 282.000000)">
				<g id="Group-5" transform="translate(0.000000, 35.000000)">
					<g id="Group-15-Copy" transform="translate(0.000000, 123.000000)">
						<g id="Group-13-Copy-2" transform="translate(80.000000, 0.000000)">
							<g id="Monogram">
								<path id="Combined-Shape" class="st0" d="M22.5,0C23.3,0,24,0.7,24,1.5v21c0,0.8-0.7,1.5-1.5,1.5h-21C0.7,24,0,23.3,0,22.5
									v-21C0,0.7,0.7,0,1.5,0H22.5z M5.7,8v7.1c0,0.3,0,0.5-0.2,0.7l-1.7,2.1v0.3h4.8v-0.3l-1.7-2.1c-0.2-0.2-0.3-0.4-0.2-0.7V9
									l4.2,9.2h0.5L15,9v7.3c0,0.2,0,0.2-0.1,0.4L13.6,18v0.3h6.3V18l-1.3-1.2c-0.1-0.1-0.2-0.2-0.1-0.4V7.3c0-0.1,0-0.3,0.1-0.4
									l1.3-1.2V5.4h-4.5l-3.2,7.9L8.7,5.4H4v0.3l1.5,1.8C5.7,7.6,5.7,7.8,5.7,8z"/>
							</g>
						</g>
					</g>
				</g>
			</g>
		</g>
	</g>
</g>
</svg>
