<svg xmlns="http://www.w3.org/2000/svg" width="424" height="189" viewBox="0 0 424 189">
    <path fill="none" fill-rule="nonzero" stroke="#000" stroke-width="4" d="M136.521 147.013h-21.484V184H78.172v-36.987H2v-26.245L80.247 5.533h34.79v112.183h21.484v29.297zm-58.35-29.297V87.442c0-5.045.204-12.37.611-21.972.407-9.603.733-15.178.977-16.724h-.977c-3.01 6.673-6.632 13.184-10.864 19.531l-32.715 49.439h42.969zm196.046-22.95c0 31.17-5.107 54.24-15.32 69.214-10.213 14.975-25.94 22.461-47.18 22.461-20.59 0-36.113-7.73-46.57-23.193-10.457-15.462-15.686-38.29-15.686-68.481 0-31.495 5.086-54.708 15.259-69.642 10.172-14.933 25.838-22.4 46.997-22.4 20.59 0 36.153 7.813 46.692 23.438 10.538 15.625 15.808 38.493 15.808 68.604zm-87.28 0c0 21.892 1.892 37.578 5.676 47.059 3.784 9.48 10.152 14.22 19.104 14.22 8.789 0 15.136-4.8 19.043-14.403 3.906-9.603 5.86-25.228 5.86-46.875 0-21.892-1.974-37.618-5.921-47.18-3.947-9.563-10.274-14.344-18.982-14.344-8.87 0-15.218 4.781-19.043 14.343-3.825 9.563-5.737 25.29-5.737 47.18zm234.985 52.247h-21.485V184h-36.865v-36.987H287.4v-26.245L365.647 5.533h34.79v112.183h21.485v29.297zm-58.35-29.297V87.442c0-5.045.204-12.37.61-21.972.408-9.603.733-15.178.977-16.724h-.976c-3.011 6.673-6.633 13.184-10.865 19.531l-32.714 49.439h42.968z" opacity=".1"/>
</svg>
