<?xml version="1.0" encoding="utf-8"?>
<!-- Generator: Adobe Illustrator 22.0.1, SVG Export Plug-In . SVG Version: 6.00 Build 0)  -->
<svg version="1.1" id="Layer_1" xmlns="http://www.w3.org/2000/svg" xmlns:xlink="http://www.w3.org/1999/xlink" x="0px" y="0px"
	 viewBox="0 0 424 189" style="enable-background:new 0 0 424 189;" xml:space="preserve">
<style type="text/css">
	.st0{fill:none;stroke:#000000;stroke-width:4;}
</style>
<title>404</title>
<desc>Created with Sketch.</desc>
<polygon id="Path" class="st0" points="80.2,5.5 115,5.5 115,117.7 136.5,117.7 136.5,147 115,147 115,184 78.2,184 78.2,147 2,147 2,120.8"/>
<path id="Path_2_" class="st0" d="M274.2,94.8c0,31.2-5.1,54.2-15.3,69.2c-10.2,15-25.9,22.5-47.2,22.5c-20.6,0-36.1-7.7-46.6-23.2
	s-15.7-38.3-15.7-68.5c0-31.5,5.1-54.7,15.3-69.6s25.8-22.4,47-22.4c20.6,0,36.2,7.8,46.7,23.4S274.2,64.7,274.2,94.8z"/>
<polygon id="Path_4_" class="st0" points="365.6,5.5
	400.4,5.5 400.4,117.7 421.9,117.7 421.9,147 400.4,147 400.4,184 363.6,184 363.6,147 287.4,147 287.4,120.8 "/>
<path id="Path_1_" class="st0" d="M78.2,117.7c0,0,1.3-67.4,1.6-69h-1c-3,6.7-43.6,69-43.6,69H78.2z"/>
<path id="Path_3_" class="st0" d="M186.9,94.8c0,21.9,1.9,37.6,5.7,47.1s10.2,14.2,19.1,14.2c8.8,0,15.1-4.8,19-14.4
	s5.9-25.2,5.9-46.9c0-21.9-2-37.6-5.9-47.2s-10.3-14.3-19-14.3c-8.9,0-15.2,4.8-19,14.3S186.9,72.9,186.9,94.8z"/>
<path id="Path_5_" class="st0" d="M363.6,117.7c0,0,1.3-67.4,1.6-69h-1c-3,6.7-43.6,69-43.6,69H363.6z"/>
</svg>
