<svg xmlns="http://www.w3.org/2000/svg" width="30" height="40" viewBox="0 0 30 40">
    <g fill="#90C53D" fill-rule="evenodd">
        <path d="M11.246 36c1.658-2.416 2.898-5.044 3.792-7.344.908 2.268 2.162 4.88 3.83 7.344h-7.622zm5.952-13.468l.63-.63 3.722-3.722-2.828-2.828L17 17.074V10h4a2 2 0 0 0 0-4h-3.764l1.552-3.106c.31-.62.278-1.356-.086-1.946A2.005 2.005 0 0 0 17 0h-4a2.001 2.001 0 0 0-1.79 2.894L12.764 6H9a2 2 0 1 0 0 4h4v7.074l-1.722-1.722-2.83 2.828 3.722 3.722.64.64c-.664 2.562-2.838 9.746-7.21 14.03A1.998 1.998 0 0 0 7 40h16a1.999 1.999 0 0 0 1.456-3.37c-4.384-4.672-6.574-11.586-7.258-14.098z"/>
        <path d="M27.865 14.197a6.022 6.022 0 0 0-5.174-1.684 2 2 0 1 0 .62 3.952 1.97 1.97 0 0 1 1.726.562c.378.378.584.878.584 1.414 0 .534-.206 1.036-.586 1.414l-3.198 3.198a2 2 0 0 0 1.416 3.414c.512 0 1.024-.194 1.414-.586l3.198-3.198a5.957 5.957 0 0 0 1.756-4.242c0-1.604-.622-3.11-1.756-4.244M6.748 26.468a1.998 1.998 0 0 0 1.414-3.414l-3.2-3.2a1.993 1.993 0 0 1-.584-1.414c0-.534.208-1.036.584-1.412a1.968 1.968 0 0 1 1.728-.562A2.006 2.006 0 0 0 8.974 14.8a1.998 1.998 0 0 0-1.664-2.286 6.024 6.024 0 0 0-5.176 1.684A5.966 5.966 0 0 0 .378 18.44c0 1.604.624 3.11 1.756 4.242l3.2 3.2c.39.39.902.586 1.414.586"/>
    </g>
</svg>
