<svg xmlns="http://www.w3.org/2000/svg" width="24" height="32" viewBox="0 0 24 32">
    <g fill="#FFF" fill-rule="evenodd">
        <path d="M8.797 28.8c1.327-1.933 2.319-4.035 3.034-5.875.726 1.814 1.73 3.904 3.064 5.875H8.797zm4.762-10.774l.504-.504 2.977-2.978-2.262-2.262-1.378 1.377V8h3.2a1.6 1.6 0 0 0 0-3.2h-3.01l1.24-2.485A1.6 1.6 0 0 0 13.4 0h-3.2a1.602 1.602 0 0 0-1.432 2.315L10.012 4.8H7A1.6 1.6 0 1 0 7 8h3.2v5.66l-1.377-1.378-2.264 2.262 2.977 2.978.512.512c-.53 2.05-2.27 7.796-5.768 11.224A1.599 1.599 0 0 0 5.4 32h12.8a1.6 1.6 0 0 0 1.165-2.696c-3.507-3.738-5.26-9.269-5.806-11.278z"/>
        <path d="M22.092 11.358a4.817 4.817 0 0 0-4.14-1.347 1.6 1.6 0 1 0 .496 3.161 1.576 1.576 0 0 1 1.381.45c.303.302.467.702.467 1.131 0 .427-.164.829-.468 1.131l-2.559 2.559a1.6 1.6 0 0 0 2.264 2.262l2.559-2.558a4.766 4.766 0 0 0 1.404-3.394 4.767 4.767 0 0 0-1.404-3.395M5.199 21.174a1.598 1.598 0 0 0 1.131-2.731l-2.56-2.56a1.594 1.594 0 0 1-.467-1.131c0-.427.166-.829.467-1.13a1.575 1.575 0 0 1 1.382-.45c.87.132 1.692-.46 1.828-1.332a1.598 1.598 0 0 0-1.332-1.829 4.819 4.819 0 0 0-4.14 1.347 4.772 4.772 0 0 0-1.405 3.394c0 1.283.499 2.488 1.405 3.393l2.56 2.56c.312.312.721.47 1.13.47"/>
    </g>
</svg>
