<svg xmlns="http://www.w3.org/2000/svg" width="32" height="22" viewBox="0 0 32 22">
    <path fill="#FFF" fill-rule="evenodd" d="M29.333 17.333H2.667v-6.666c0-1.103.897-2 2-2 1.102 0 2 .897 2 2V12c0 .736.597 1.333 1.333 1.333h16c.736 0 1.333-.597 1.333-1.333v-1.333c0-1.103.898-2 2-2 1.103 0 2 .897 2 2v6.666zM10.667 2.667h4v8H9.333c0-1.848-1.086-3.432-2.648-4.19.102-2.116 1.84-3.81 3.982-3.81zm14.648 3.81c-1.562.758-2.648 2.342-2.648 4.19h-5.334v-8h4c2.142 0 3.88 1.694 3.982 3.81zm2.624-.417C27.628 2.672 24.803 0 21.333 0H10.667C7.197 0 4.372 2.672 4.06 6.06 1.776 6.361 0 8.301 0 10.667v6.666A2.67 2.67 0 0 0 2.667 20v1.333h2.666V20h21.334v1.333h2.666V20A2.67 2.67 0 0 0 32 17.333v-6.666C32 8.3 30.224 6.36 27.939 6.06z"/>
</svg>
