<svg xmlns="http://www.w3.org/2000/svg" width="42" height="28" viewBox="0 0 42 28">
    <path fill="#90C53D" fill-rule="evenodd" d="M38.5 22.75h-35V14a2.628 2.628 0 0 1 2.625-2.625A2.628 2.628 0 0 1 8.75 14v1.75c0 .966.784 1.75 1.75 1.75h21a1.75 1.75 0 0 0 1.75-1.75V14a2.628 2.628 0 0 1 2.625-2.625A2.628 2.628 0 0 1 38.5 14v8.75zM14 3.5h5.25V14h-7c0-2.425-1.426-4.505-3.476-5.498C8.909 5.723 11.19 3.5 14 3.5zm19.225 5.002c-2.049.993-3.475 3.072-3.475 5.498h-7V3.5H28c2.81 0 5.093 2.224 5.225 5.002zm3.444-.548C36.263 3.507 32.554 0 28 0H14C9.447 0 5.738 3.507 5.33 7.954 2.332 8.349 0 10.896 0 14v8.75c0 1.928 1.57 3.5 3.5 3.5V28H7v-1.75h28V28h3.5v-1.75c1.93 0 3.5-1.572 3.5-3.5V14c0-3.104-2.331-5.65-5.33-6.046z"/>
</svg>
