<svg xmlns="http://www.w3.org/2000/svg" width="42" height="40" viewBox="0 0 42 40">
    <g fill="#90C53D" fill-rule="evenodd">
        <path d="M10 7.53V12H6.166A16.044 16.044 0 0 1 10 7.53zM10 24H4.526A16.01 16.01 0 0 1 4 20c0-1.382.196-2.718.526-4H10v8zm0 8.47A16.072 16.072 0 0 1 6.166 28H10v4.47zM0 20c0 11.03 8.972 20 20 20v-4a15.89 15.89 0 0 1-6-1.178V28h6v-4h-6v-8h6v-4h-6V5.178A15.89 15.89 0 0 1 20 4V0C8.972 0 0 8.972 0 20zM32 8c-1.102 0-2-.898-2-2 0-1.102.898-2 2-2 1.102 0 2 .898 2 2 0 1.102-.898 2-2 2m6-2c0-3.308-2.692-6-6-6s-6 2.692-6 6 2.692 6 6 6 6-2.692 6-6M38 26h-2a2 2 0 0 0-2 2v8h-4v-8a2 2 0 0 0-2-2h-2v-4c0-3.308 2.692-6 6-6s6 2.692 6 6v4zm-6-14c-5.514 0-10 4.486-10 10v6a2 2 0 0 0 2 2h2v8a2 2 0 0 0 2 2h8a2 2 0 0 0 2-2v-8h2a2 2 0 0 0 2-2v-6c0-5.514-4.486-10-10-10z"/>
    </g>
</svg>
