<svg xmlns="http://www.w3.org/2000/svg" width="32" height="31" viewBox="0 0 32 31">
    <g fill="#FFF" fill-rule="evenodd">
        <path d="M7.619 5.737v3.406H4.698a12.224 12.224 0 0 1 2.921-3.406zm0 12.549h-4.17c-.252-.977-.401-1.995-.401-3.048s.149-2.07.4-3.047H7.62v6.095zm0 6.453a12.245 12.245 0 0 1-2.921-3.406h2.921v3.406zM0 15.24c0 8.403 6.836 15.237 15.238 15.237V27.43c-1.617 0-3.159-.323-4.571-.898v-5.198h4.571v-3.047h-4.571V12.19h4.571V9.143h-4.571V3.945a12.107 12.107 0 0 1 4.571-.897V0C6.836 0 0 6.836 0 15.238zM24.381 6.095c-.84 0-1.524-.684-1.524-1.524s.684-1.523 1.524-1.523 1.524.684 1.524 1.523c0 .84-.684 1.524-1.524 1.524m4.571-1.524A4.577 4.577 0 0 0 24.381 0a4.577 4.577 0 0 0-4.571 4.571 4.577 4.577 0 0 0 4.571 4.572 4.577 4.577 0 0 0 4.571-4.572"/>
        <path d="M28.952 19.81H27.43c-.842 0-1.524.682-1.524 1.523v6.096h-3.048v-6.096c0-.84-.683-1.523-1.524-1.523H19.81v-3.048a4.577 4.577 0 0 1 4.571-4.572 4.577 4.577 0 0 1 4.571 4.572v3.048zM24.381 9.143c-4.201 0-7.62 3.418-7.62 7.619v4.571c0 .841.684 1.524 1.525 1.524h1.524v6.095c0 .842.682 1.524 1.523 1.524h6.096c.84 0 1.523-.682 1.523-1.524v-6.095h1.524c.841 0 1.524-.683 1.524-1.524v-4.571c0-4.201-3.418-7.62-7.619-7.62z"/>
    </g>
</svg>
