<svg xmlns="http://www.w3.org/2000/svg" width="40" height="40" viewBox="0 0 40 40">
    <g fill="#90C53D" fill-rule="evenodd">
        <path d="M14 19c1.93 0 3.5-1.57 3.5-3.5S15.93 12 14 12s-3.5 1.57-3.5 3.5S12.07 19 14 19"/>
        <path d="M20 36c-8.822 0-16-7.178-16-16S11.178 4 20 4s16 7.178 16 16-7.178 16-16 16m0-36C8.972 0 0 8.972 0 20c0 11.03 8.972 20 20 20s20-8.97 20-20C40 8.972 31.028 0 20 0"/>
        <path d="M20 28a7.945 7.945 0 0 1-6.398-3.196l-3.196 2.406C12.7 30.256 16.196 32 20 32c3.81 0 7.31-1.748 9.6-4.798l-3.2-2.404A7.932 7.932 0 0 1 20 28M22 18h8v-4h-8z"/>
    </g>
</svg>
