<svg xmlns="http://www.w3.org/2000/svg" width="32" height="32" viewBox="0 0 32 32">
    <g fill="#FFF" fill-rule="evenodd">
        <path d="M11.2 15.2c1.544 0 2.8-1.256 2.8-2.8 0-1.544-1.256-2.8-2.8-2.8a2.803 2.803 0 0 0-2.8 2.8c0 1.544 1.256 2.8 2.8 2.8"/>
        <path d="M16 28.8C8.942 28.8 3.2 23.058 3.2 16 3.2 8.942 8.942 3.2 16 3.2c7.058 0 12.8 5.742 12.8 12.8 0 7.058-5.742 12.8-12.8 12.8M16 0C7.178 0 0 7.178 0 16c0 8.824 7.178 16 16 16s16-7.176 16-16c0-8.822-7.178-16-16-16"/>
        <path d="M16 22.4a6.356 6.356 0 0 1-5.118-2.557l-2.557 1.925A9.53 9.53 0 0 0 16 25.6a9.524 9.524 0 0 0 7.68-3.838l-2.56-1.924A6.345 6.345 0 0 1 16 22.4M17.6 14.4H24v-3.2h-6.4z"/>
    </g>
</svg>
