<svg xmlns="http://www.w3.org/2000/svg" width="31" height="32" viewBox="0 0 31 32">
    <g fill="#FFF" fill-rule="evenodd">
        <path d="M9.126 28.946h12.19c0-2.649-2.562-4.572-6.093-4.572-3.532 0-6.097 1.923-6.097 4.572zm15.238 3.047H6.078v-3.047c0-4.343 3.932-7.62 9.145-7.62 5.211 0 9.141 3.277 9.141 7.62v3.047zM9.838 19.315c-2.094-2.69-1.935-6.574.535-9.045a6.812 6.812 0 0 1 4.849-2.009c1.831 0 3.553.713 4.849 2.009 2.468 2.471 2.627 6.355.534 9.045.985.404 1.888.914 2.693 1.522 2.737-3.864 2.386-9.262-1.073-12.722a9.834 9.834 0 0 0-7.003-2.901 9.834 9.834 0 0 0-7.004 2.9c-3.459 3.461-3.81 8.859-1.072 12.723a12.026 12.026 0 0 1 2.692-1.522"/>
        <path d="M5.424 22.462c-3.521-4.77-3.137-11.535 1.178-15.85 4.753-4.753 12.486-4.753 17.24 0 4.315 4.315 4.699 11.082 1.177 15.85.707.83 1.271 1.763 1.675 2.772 5.217-5.978 4.996-15.084-.698-20.779-5.94-5.94-15.608-5.94-21.548 0-5.693 5.695-5.916 14.801-.7 20.777.406-1.01.97-1.94 1.676-2.77"/>
        <path d="M15.221 13.708c-.84 0-1.523.684-1.523 1.524s.684 1.523 1.523 1.523c.84 0 1.524-.684 1.524-1.523 0-.84-.684-1.524-1.524-1.524m0 6.095a4.577 4.577 0 0 1-4.571-4.571 4.577 4.577 0 0 1 4.571-4.572 4.577 4.577 0 0 1 4.572 4.572 4.577 4.577 0 0 1-4.572 4.571"/>
    </g>
</svg>
