<svg xmlns="http://www.w3.org/2000/svg" width="40" height="42" viewBox="0 0 40 42">
    <g fill="#90C53D" fill-rule="evenodd">
        <path d="M11.978 37.991h16c0-3.476-3.364-6-7.998-6-4.636 0-8.002 2.524-8.002 6zm20 4h-24v-4c0-5.7 5.16-10 12.002-10 6.84 0 11.998 4.3 11.998 10v4zM12.913 25.35c-2.748-3.53-2.54-8.627.702-11.871a8.94 8.94 0 0 1 6.364-2.636 8.94 8.94 0 0 1 6.364 2.636c3.24 3.244 3.448 8.342.702 11.872 1.292.53 2.478 1.2 3.534 1.998 3.592-5.072 3.132-12.156-1.408-16.698a12.907 12.907 0 0 0-9.192-3.808 12.907 12.907 0 0 0-9.192 3.808c-4.54 4.542-5 11.626-1.408 16.698a15.784 15.784 0 0 1 3.534-1.998"/>
        <path d="M7.12 29.482c-4.622-6.26-4.118-15.14 1.546-20.804 6.238-6.238 16.388-6.238 22.626 0 5.664 5.664 6.168 14.546 1.546 20.804a13.131 13.131 0 0 1 2.198 3.638c6.848-7.846 6.558-19.798-.916-27.272-7.796-7.796-20.486-7.796-28.282 0-7.472 7.474-7.764 19.426-.918 27.27a13.194 13.194 0 0 1 2.2-3.636"/>
        <path d="M19.978 17.991c-1.102 0-2 .898-2 2 0 1.102.898 2 2 2 1.102 0 2-.898 2-2 0-1.102-.898-2-2-2m0 8c-3.308 0-6-2.692-6-6s2.692-6 6-6 6 2.692 6 6-2.692 6-6 6"/>
    </g>
</svg>
